<svg xmlns="http://www.w3.org/2000/svg" xmlns:xlink="http://www.w3.org/1999/xlink" width="49.177" height="49.156" viewBox="0 0 49.177 49.156">
  <defs>
    <linearGradient id="linear-gradient" x1="0.5" x2="0.5" y2="1" gradientUnits="objectBoundingBox">
      <stop offset="0" stop-color="#028dec"/>
      <stop offset="1" stop-color="#0d4b74"/>
    </linearGradient>
  </defs>
  <g id="global" transform="translate(0 -0.105)">
    <path id="Path_115" data-name="Path 115" d="M41.639,32.925a.819.819,0,1,1-.819-.819A.819.819,0,0,1,41.639,32.925Zm0,0" transform="translate(-35.904 -28.723)" fill="url(#linear-gradient)"/>
    <path id="Path_116" data-name="Path 116" d="M73.639,32.925a.819.819,0,1,1-.819-.819A.819.819,0,0,1,73.639,32.925Zm0,0" transform="translate(-64.627 -28.723)" fill="url(#linear-gradient)"/>
    <path id="Path_117" data-name="Path 117" d="M105.639,32.925a.819.819,0,1,1-.819-.819A.819.819,0,0,1,105.639,32.925Zm0,0" transform="translate(-93.35 -28.723)" fill="url(#linear-gradient)"/>
    <path id="Path_118" data-name="Path 118" d="M160.819,32.105a.819.819,0,0,0,0,1.639H181.3a.819.819,0,0,0,0-1.639Zm0,0" transform="translate(-143.615 -28.723)" fill="url(#linear-gradient)"/>
    <path id="Path_119" data-name="Path 119" d="M11.813,40.249H1.638V8.3H37.686a.819.819,0,1,0,0-1.639H1.638V1.744H40.143V11.919a.819.819,0,1,0,1.639,0V.925a.819.819,0,0,0-.819-.819H.819A.819.819,0,0,0,0,.925V41.069a.819.819,0,0,0,.819.819H11.813a.819.819,0,1,0,0-1.639Zm0,0" transform="translate(0 0)" fill="url(#linear-gradient)"/>
    <path id="Path_120" data-name="Path 120" d="M353.724,350.347l-4.506-4.473,2.638-1.761a.815.815,0,0,0-.246-1.475l-11-2.925a.82.82,0,0,0-1,1l2.884,11a.815.815,0,0,0,1.475.246l1.8-2.638,4.506,4.506a.831.831,0,0,0,1.163,0l2.319-2.319a.819.819,0,0,0-.033-1.163Zm-2.9,1.745-4.637-4.637a.817.817,0,0,0-.573-.238h-.082a.818.818,0,0,0-.6.36l-1.311,1.958-2.073-7.881,7.881,2.073-1.958,1.327a.81.81,0,0,0-.123,1.253l4.637,4.637Zm0,0" transform="translate(-304.806 -304.806)" fill="url(#linear-gradient)"/>
    <path id="Path_121" data-name="Path 121" d="M120.287,129.294a16.271,16.271,0,0,1-5.374,1.221v-7.373a32.649,32.649,0,0,1,3.621.287.827.827,0,1,0,.23-1.639,34.642,34.642,0,0,0-3.851-.287v-6.554h8.193a29.339,29.339,0,0,1-.377,3.834.83.83,0,1,0,1.639.27,30.613,30.613,0,0,0,.377-4.1h5.735a16.268,16.268,0,0,1-1.18,5.374.818.818,0,1,0,1.516.614,18.072,18.072,0,0,0-16.721-24.832h-.59a18.081,18.081,0,0,0-10.88,4.1.821.821,0,1,0,1.04,1.27,16.539,16.539,0,0,1,4.76-2.736,16.016,16.016,0,0,0-3.162,5.1,32.317,32.317,0,0,1-4.1-1.467.819.819,0,0,0-.934.213.065.065,0,0,0-.058.049,18.022,18.022,0,0,0,.049,22.939l.058.065a17.908,17.908,0,0,0,20.621,5.17.819.819,0,1,0-.614-1.516Zm-7.013,1.147c-2.613-.418-4.916-2.867-6.4-6.472a31.526,31.526,0,0,1,6.4-.827Zm0-8.938a32.971,32.971,0,0,0-6.972.893,26.892,26.892,0,0,1-1.221-7.447h8.193Zm-15.525-6.554h5.694a28.4,28.4,0,0,0,1.278,7.9,33,33,0,0,0-3.572,1.27,16.271,16.271,0,0,1-3.4-9.167Zm23.513-10.65a31.62,31.62,0,0,1-6.349.819V97.826C117.5,98.26,119.779,100.718,121.262,104.3Zm-7.988,9.012h-8.193a26.606,26.606,0,0,1,1.229-7.472,32.935,32.935,0,0,0,6.964.918Zm1.639-6.554a33.011,33.011,0,0,0,6.915-.885,26.6,26.6,0,0,1,1.229,7.439h-8.143Zm15.566,6.554h-5.735a28.367,28.367,0,0,0-1.27-7.889,32.215,32.215,0,0,0,3.621-1.278,16.272,16.272,0,0,1,3.383,9.167Zm-4.506-10.478a31.271,31.271,0,0,1-3.056,1.049,15.715,15.715,0,0,0-3.179-5.129,16.479,16.479,0,0,1,6.194,4.08Zm-12.7-5.014v7.3a31.52,31.52,0,0,1-6.4-.819C108.359,100.685,110.661,98.236,113.274,97.818Zm-9.831,15.492H97.708a16.387,16.387,0,0,1,3.383-9.167,33.17,33.17,0,0,0,3.58,1.27A28.3,28.3,0,0,0,103.443,113.31Zm-1.188,12.117a31.135,31.135,0,0,1,3.007-1.032,16,16,0,0,0,3.146,5.08,16.318,16.318,0,0,1-6.153-4.047Zm0,0" transform="translate(-86.239 -86.169)" fill="url(#linear-gradient)"/>
    <path id="Path_122" data-name="Path 122" d="M428.013,138.529a.819.819,0,0,0,.754.508.684.684,0,0,0,.311-.066.819.819,0,0,0,.442-1.065,21.7,21.7,0,0,0-3.408-5.628.819.819,0,0,0-1.253,1.024,20.263,20.263,0,0,1,3.154,5.227Zm0,0" transform="translate(-381.249 -118.45)" fill="url(#linear-gradient)"/>
    <path id="Path_123" data-name="Path 123" d="M61.1,131.3A22.121,22.121,0,0,0,56,145.427a.819.819,0,0,0,1.639,0,20.481,20.481,0,0,1,4.727-13.108.82.82,0,1,0-1.262-1.048Zm0,0" transform="translate(-50.266 -117.467)" fill="url(#linear-gradient)"/>
  </g>
</svg>
