<svg xmlns="http://www.w3.org/2000/svg" xmlns:xlink="http://www.w3.org/1999/xlink" width="62" height="50" viewBox="0 0 62 50">
  <defs>
    <clipPath id="clip-path">
      <rect id="Rectangle_98" data-name="Rectangle 98" width="62" height="50" transform="translate(3.251 1456.933)" fill="#fff"/>
    </clipPath>
  </defs>
  <g id="Mask_Group_2" data-name="Mask Group 2" transform="translate(-3.251 -1456.933)" clip-path="url(#clip-path)">
    <g id="bullhorn" transform="translate(10.972 1458.266)">
      <path id="Path_85" data-name="Path 85" d="M61.585,567.891H60.033v-7.6a.776.776,0,1,0-1.552,0v7.6H38.306V552.372h6.456a.776.776,0,0,0,0-1.552H37.53a.776.776,0,0,0-.776.776v16.3H35.2a.776.776,0,0,0-.776.776v1.552a3.88,3.88,0,0,0,3.88,3.88H58.481a3.88,3.88,0,0,0,3.88-3.88v-1.552A.776.776,0,0,0,61.585,567.891Zm-.776,2.328a2.328,2.328,0,0,1-2.328,2.328H56.929v-.776a.776.776,0,1,0-1.552,0v.776H41.41v-.776a.776.776,0,1,0-1.552,0v.776H38.306a2.328,2.328,0,0,1-2.328-2.328v-.776H60.809Z" transform="translate(-34.426 -526.765)" fill="#fff"/>
      <path id="Path_86" data-name="Path 86" d="M847.322,104.831h1.552a.776.776,0,1,0,0-1.552h-1.552a2.328,2.328,0,0,0-2.328,2.328v.776h-.776a.776.776,0,0,0,0,1.552h.776v2.328a.776.776,0,1,0,1.552,0v-2.328h.776a.776.776,0,0,0,0-1.552h-.776v-.776A.776.776,0,0,1,847.322,104.831Z" transform="translate(-806.973 -99.399)" fill="#fff"/>
      <path id="Path_87" data-name="Path 87" d="M769.016,34.426H759.7a2.328,2.328,0,0,0-2.328,2.328v1.552a.776.776,0,1,0,1.552,0V36.754a.776.776,0,0,1,.776-.776h9.312a.776.776,0,0,1,.776.776v9.311a.776.776,0,0,1-.776.776H759.7a.776.776,0,0,1-.776-.776V41.41a.776.776,0,1,0-1.552,0v4.656a2.328,2.328,0,0,0,2.328,2.328h9.312a2.328,2.328,0,0,0,2.328-2.328V36.754A2.328,2.328,0,0,0,769.016,34.426Z" transform="translate(-724.787 -33.65)" fill="#fff"/>
      <path id="Path_88" data-name="Path 88" d="M843.443,657.2a3.1,3.1,0,1,0,3.1-3.1A3.1,3.1,0,0,0,843.443,657.2Zm4.656,0a1.552,1.552,0,1,1-1.552-1.552A1.552,1.552,0,0,1,848.1,657.2Z" transform="translate(-806.973 -625.388)" fill="#fff"/>
      <path id="Path_89" data-name="Path 89" d="M769.016,568.033H759.7a2.328,2.328,0,0,0-2.328,2.328v9.312A2.328,2.328,0,0,0,759.7,582h9.312a2.328,2.328,0,0,0,2.328-2.328V578.12a.776.776,0,0,0-1.552,0v1.552a.776.776,0,0,1-.776.776H759.7a.776.776,0,0,1-.776-.776v-9.312a.776.776,0,0,1,.776-.776h9.312a.776.776,0,0,1,.776.776v4.656a.776.776,0,1,0,1.552,0v-4.656A2.328,2.328,0,0,0,769.016,568.033Z" transform="translate(-724.787 -543.202)" fill="#fff"/>
      <path id="Path_90" data-name="Path 90" d="M413.479,109.42a.772.772,0,0,0,.76.031l4.656-2.328a.776.776,0,0,0,0-1.381l-4.656-2.328a.776.776,0,0,0-1.125.691v4.656A.776.776,0,0,0,413.479,109.42Zm1.187-4.058,2.142,1.071-2.142,1.071Z" transform="translate(-396.044 -99.449)" fill="#fff"/>
      <path id="Path_91" data-name="Path 91" d="M316.82,31.18a6.984,6.984,0,1,0-6.984-6.984A6.984,6.984,0,0,0,316.82,31.18Zm0-12.415a5.432,5.432,0,1,1-5.432,5.432A5.432,5.432,0,0,1,316.82,18.765Z" transform="translate(-297.421 -17.213)" fill="#fff"/>
      <path id="Path_92" data-name="Path 92" d="M620.447,297.278a.776.776,0,0,0,.621-.31l2.328-3.1a.776.776,0,0,0-1.242-.931l-2.328,3.1a.776.776,0,0,0,.621,1.242Z" transform="translate(-593.289 -280.207)" fill="#fff"/>
      <path id="Path_93" data-name="Path 93" d="M671.466,382.257a.776.776,0,0,0,1.086.155l3.1-2.328a.776.776,0,1,0-.931-1.242l-3.1,2.328A.776.776,0,0,0,671.466,382.257Z" transform="translate(-642.6 -362.393)" fill="#fff"/>
      <path id="Path_94" data-name="Path 94" d="M726.656,482.2a.776.776,0,0,0-.931-.621l-3.88.776a.78.78,0,1,0,.155,1.552h.155l3.88-.776a.776.776,0,0,0,.621-.931Z" transform="translate(-690.186 -460.629)" fill="#fff"/>
      <path id="Path_95" data-name="Path 95" d="M35.2,203.311h9.311a.776.776,0,0,0,.776-.776V190.12a.776.776,0,0,0-.776-.776H35.2a.776.776,0,0,0-.776.776v12.415A.776.776,0,0,0,35.2,203.311Zm.776-12.415h7.76V201.76h-7.76Z" transform="translate(-34.426 -181.585)" fill="#fff"/>
      <path id="Path_96" data-name="Path 96" d="M140.033,258.2h-1.552a.776.776,0,0,0,0,1.552h1.552a.776.776,0,1,0,0-1.552Z" transform="translate(-133.049 -247.333)" fill="#fff"/>
      <path id="Path_97" data-name="Path 97" d="M107.158,327.049h-3.1a.776.776,0,1,0,0,1.552h3.1a.776.776,0,1,0,0-1.552Z" transform="translate(-100.175 -313.082)" fill="#fff"/>
      <path id="Path_98" data-name="Path 98" d="M107.158,395.9h-3.1a.776.776,0,0,0,0,1.552h3.1a.776.776,0,0,0,0-1.552Z" transform="translate(-100.175 -378.831)" fill="#fff"/>
      <path id="Path_99" data-name="Path 99" d="M176.519,400.369a.779.779,0,1,0-1.35.776l3.422,5.921-12.415,4.656h-.116l-2.017,1.164-1.342.776a1.549,1.549,0,0,1-2.118-.566l-1.552-2.685a1.552,1.552,0,0,1,.582-2.048l2.685-1.552,1.94,3.36a.779.779,0,0,0,1.35-.776l-2-3.461,9.738-8.031.318.551a.779.779,0,1,0,1.35-.776l-.776-1.342a.786.786,0,0,0-1.172-.21l-10.863,8.954-3.306,1.909a3.1,3.1,0,0,0-1.428,3.515l-.776.442a2.326,2.326,0,0,0,1.164,4.345,2.375,2.375,0,0,0,1.164-.31l.776-.442a3.011,3.011,0,0,0,1.358.807,2.939,2.939,0,0,0,.815.109,3.058,3.058,0,0,0,1.552-.419l.675-.388,1.552,2.693a2.326,2.326,0,1,0,4.027-2.328l-1.412-2.46,11.639-4.369a.778.778,0,0,0,.4-1.11ZM158.191,413.63a.775.775,0,1,1-.776-1.342l.675-.388.776,1.342ZM168.4,415.8a.775.775,0,0,1-1.342.776l-1.552-2.693,1.288-.737h.062Z" transform="translate(-150.043 -378.875)" fill="#fff"/>
    </g>
  </g>
</svg>
