<svg id="social-media-marketing" xmlns="http://www.w3.org/2000/svg" xmlns:xlink="http://www.w3.org/1999/xlink" width="48.307" height="48.306" viewBox="0 0 48.307 48.306">
  <defs>
    <linearGradient id="linear-gradient" x1="0.5" x2="0.5" y2="1" gradientUnits="objectBoundingBox">
      <stop offset="0" stop-color="#0e6aa8"/>
      <stop offset="1" stop-color="#0d4b74"/>
    </linearGradient>
  </defs>
  <path id="Path_100" data-name="Path 100" d="M.708,65.379a.708.708,0,0,0,.708-.708V59.149a3.631,3.631,0,0,1,3.621-3.632H6.109a.708.708,0,1,0,0-1.415H5.037A5.048,5.048,0,0,0,0,59.149v5.523a.708.708,0,0,0,.708.708Z" transform="translate(0 -48.997)" fill="url(#linear-gradient)"/>
  <path id="Path_101" data-name="Path 101" d="M43.27,54.1H26.616a.708.708,0,1,0,0,1.415H43.27a3.631,3.631,0,0,1,3.621,3.632V86.186a3.631,3.631,0,0,1-3.621,3.632H5.037a3.631,3.631,0,0,1-3.621-3.632V67.965a.708.708,0,1,0-1.415,0v18.22a5.048,5.048,0,0,0,5.037,5.048H19.4l-1.425,4.655H14.84a.708.708,0,1,0,0,1.415H33.467a.708.708,0,0,0,0-1.415H30.329L28.9,91.233H43.27a5.048,5.048,0,0,0,5.037-5.048V59.15A5.048,5.048,0,0,0,43.27,54.1ZM19.458,95.889l1.425-4.655h6.541l1.425,4.655Z" transform="translate(0 -48.998)" fill="url(#linear-gradient)"/>
  <path id="Path_102" data-name="Path 102" d="M32.161,84.017H33.3a.708.708,0,0,0,0-1.415H32.161a2.242,2.242,0,0,0-2.237,2.241v24.346a2.242,2.242,0,0,0,2.237,2.241H45.352a.708.708,0,1,0,0-1.415H32.161a.825.825,0,0,1-.822-.826V84.843A.825.825,0,0,1,32.161,84.017Z" transform="translate(-27.101 -74.809)" fill="url(#linear-gradient)"/>
  <path id="Path_103" data-name="Path 103" d="M438.409,231.3a.708.708,0,0,0-.708.708v11.85a.825.825,0,0,1-.822.826h-1.53a.708.708,0,1,0,0,1.415h1.53a2.242,2.242,0,0,0,2.237-2.241v-11.85A.708.708,0,0,0,438.409,231.3Z" transform="translate(-393.633 -209.478)" fill="url(#linear-gradient)"/>
  <path id="Path_104" data-name="Path 104" d="M295.313,84.843a2.242,2.242,0,0,0-2.237-2.241H276.564a.708.708,0,0,0,0,1.415h16.512a.825.825,0,0,1,.822.826v9.163a.708.708,0,1,0,1.415,0Z" transform="translate(-249.829 -74.809)" fill="url(#linear-gradient)"/>
  <path id="Path_105" data-name="Path 105" d="M180.276,174.966a1.814,1.814,0,0,0-1.566,1.793v.423H177.4a.708.708,0,1,0,0,1.415h1.309v.423a1.814,1.814,0,0,0,1.566,1.793l.184.025v2.79a.708.708,0,0,0,1.415,0v-2.6l3.873.521a2.121,2.121,0,0,0,4.211-.358v-6.6a2.121,2.121,0,0,0-4.211-.358Zm5.442,5.152-5.253-.707a.394.394,0,0,1-.34-.39v-2.262a.394.394,0,0,1,.34-.39l5.253-.707Zm1.415-5.531a.706.706,0,1,1,1.411,0v6.6a.706.706,0,1,1-1.411,0Z" transform="translate(-160.022 -156.193)" fill="url(#linear-gradient)"/>
  <path id="Path_106" data-name="Path 106" d="M89.317,12.82h4.217l1.273,1.835a.708.708,0,0,0,1.163,0l1.273-1.835h4.217a2.126,2.126,0,0,0,2.123-2.124V2.123A2.126,2.126,0,0,0,101.46,0H94.226a.708.708,0,0,0,0,1.415h7.234a.709.709,0,0,1,.708.708V10.7a.709.709,0,0,1-.708.708H96.873a.708.708,0,0,0-.581.3l-.9,1.3-.9-1.3a.707.707,0,0,0-.581-.3H89.317a.709.709,0,0,1-.708-.708V2.123a.709.709,0,0,1,.708-.708h1.617a.708.708,0,0,0,0-1.415H89.317a2.126,2.126,0,0,0-2.123,2.123V10.7A2.126,2.126,0,0,0,89.317,12.82Z" transform="translate(-78.967)" fill="url(#linear-gradient)"/>
  <path id="Path_107" data-name="Path 107" d="M57.263,402.938a.708.708,0,0,0,0,1.415h2.891a.708.708,0,0,0,0-1.415Z" transform="translate(-51.219 -364.921)" fill="url(#linear-gradient)"/>
  <path id="Path_108" data-name="Path 108" d="M117.263,402.938a.708.708,0,0,0,0,1.415h2.891a.708.708,0,0,0,0-1.415Z" transform="translate(-105.558 -364.921)" fill="url(#linear-gradient)"/>
  <path id="Path_109" data-name="Path 109" d="M140.4,41.21a.707.707,0,0,0,1,0l2.332-2.332a2.12,2.12,0,0,0-1.5-3.621h0a2.108,2.108,0,0,0-1.333.472,2.108,2.108,0,0,0-1.333-.472h0a2.12,2.12,0,0,0-1.5,3.621Zm-1.333-4.332a.7.7,0,0,1,.5-.206h0a.7.7,0,0,1,.5.208l.334.334a.707.707,0,0,0,1,0l.334-.334a.7.7,0,0,1,.5-.208h0a.7.7,0,0,1,.5.206.707.707,0,0,1,0,1L140.9,39.709l-1.832-1.832a.707.707,0,0,1,0-1Z" transform="translate(-124.478 -31.931)" fill="url(#linear-gradient)"/>
  <path id="Path_110" data-name="Path 110" d="M87.9,285.815h3.033a.708.708,0,1,0,0-1.415H87.9a.708.708,0,1,0,0,1.415Z" transform="translate(-78.967 -257.567)" fill="url(#linear-gradient)"/>
  <path id="Path_111" data-name="Path 111" d="M87.9,320.815h4.917a.708.708,0,0,0,0-1.415H87.9a.708.708,0,0,0,0,1.415Z" transform="translate(-78.967 -289.265)" fill="url(#linear-gradient)"/>
  <path id="Path_112" data-name="Path 112" d="M385.323,173.223a.708.708,0,0,0-.708-.708h-3.033a.708.708,0,1,0,0,1.415h3.033A.708.708,0,0,0,385.323,173.223Z" transform="translate(-344.94 -156.239)" fill="url(#linear-gradient)"/>
  <path id="Path_113" data-name="Path 113" d="M366.529,137.515h-4.917a.708.708,0,0,0,0,1.415h4.917a.708.708,0,0,0,0-1.415Z" transform="translate(-326.854 -124.541)" fill="url(#linear-gradient)"/>
  <path id="Path_114" data-name="Path 114" d="M219.125,325.823h.627a.707.707,0,0,0,.573-.293l1.231-1.7,1.231,1.7a.708.708,0,0,0,.573.293h3.9a.708.708,0,0,0,0-1.415h-3.541l-1.592-2.2a.708.708,0,0,0-1.146,0l-1.592,2.2h-.265a3.051,3.051,0,0,0,0,6.1h13.132a3.051,3.051,0,0,0,0-6.1h-1.72a.708.708,0,1,0,0,1.415h1.72a1.636,1.636,0,0,1,0,3.271H219.125a1.636,1.636,0,0,1,0-3.271Z" transform="translate(-195.691 -291.545)" fill="url(#linear-gradient)"/>
</svg>
