<svg xmlns="http://www.w3.org/2000/svg" xmlns:xlink="http://www.w3.org/1999/xlink" width="39.885" height="49.856" viewBox="0 0 39.885 49.856">
  <defs>
    <linearGradient id="linear-gradient" x1="0.5" x2="0.5" y2="1" gradientUnits="objectBoundingBox">
      <stop offset="0" stop-color="#0d4b74"/>
      <stop offset="1" stop-color="#0098ff"/>
    </linearGradient>
  </defs>
  <g id="surface1" transform="translate(-0.25)">
    <path id="Path_141" data-name="Path 141" d="M588.87,363.484l-1.12,1.225,5.1,4.671a5.831,5.831,0,0,1,1.884,4.288V394.01h1.662V373.669a7.5,7.5,0,0,0-2.425-5.513Zm0,0" transform="translate(-556.257 -344.154)" fill="url(#linear-gradient)"/>
    <path id="Path_142" data-name="Path 142" d="M26.009,0H4.4A4.16,4.16,0,0,0,.25,4.155V45.7A4.16,4.16,0,0,0,4.4,49.856H25.178V48.369a18.891,18.891,0,0,1,3.184-10.516.831.831,0,0,0-.1-1.049l-5.817-5.817a2.695,2.695,0,0,1,.2-3.988,2.8,2.8,0,0,1,3.72.286l8.2,8.2,1.175-1.175-5.573-5.575V4.155A4.16,4.16,0,0,0,26.009,0ZM28.5,27.077l-.967-.967a4.472,4.472,0,0,0-5.953-.393,4.357,4.357,0,0,0-.315,6.447l5.343,5.343a20.545,20.545,0,0,0-3.088,10.688H4.4A2.493,2.493,0,0,1,1.912,45.7V43.208H22.685V41.547H1.912V6.647H28.5Zm0-22.091H1.912V4.155A2.493,2.493,0,0,1,4.4,1.662h21.6A2.493,2.493,0,0,1,28.5,4.155Zm0,0" fill="url(#linear-gradient)"/>
    <path id="Path_143" data-name="Path 143" d="M64.412,162.9h3.324a1.662,1.662,0,0,0,1.662-1.662v-3.324a1.662,1.662,0,0,0-1.662-1.662H64.412a1.662,1.662,0,0,0-1.662,1.662v3.324A1.662,1.662,0,0,0,64.412,162.9Zm0-4.986h3.324v3.324H64.412Zm0,0" transform="translate(-59.176 -147.941)" fill="url(#linear-gradient)"/>
    <path id="Path_144" data-name="Path 144" d="M220.662,162.9h3.324a1.662,1.662,0,0,0,1.662-1.662v-3.324a1.662,1.662,0,0,0-1.662-1.662h-3.324A1.662,1.662,0,0,0,219,157.912v3.324A1.662,1.662,0,0,0,220.662,162.9Zm0-4.986h3.324v3.324h-3.324Zm0,0" transform="translate(-207.117 -147.941)" fill="url(#linear-gradient)"/>
    <path id="Path_145" data-name="Path 145" d="M376.912,162.9h3.324a1.662,1.662,0,0,0,1.662-1.662v-3.324a1.662,1.662,0,0,0-1.662-1.662h-3.324a1.662,1.662,0,0,0-1.662,1.662v3.324A1.662,1.662,0,0,0,376.912,162.9Zm0-4.986h3.324v3.324h-3.324Zm0,0" transform="translate(-355.058 -147.941)" fill="url(#linear-gradient)"/>
    <path id="Path_146" data-name="Path 146" d="M64.412,319.147h3.324a1.662,1.662,0,0,0,1.662-1.662v-3.324a1.662,1.662,0,0,0-1.662-1.662H64.412a1.662,1.662,0,0,0-1.662,1.662v3.324A1.662,1.662,0,0,0,64.412,319.147Zm0-4.986h3.324v3.324H64.412Zm0,0" transform="translate(-59.176 -295.881)" fill="url(#linear-gradient)"/>
    <path id="Path_147" data-name="Path 147" d="M64.412,475.4h3.324a1.662,1.662,0,0,0,1.662-1.662v-3.324a1.662,1.662,0,0,0-1.662-1.662H64.412a1.662,1.662,0,0,0-1.662,1.662v3.324A1.662,1.662,0,0,0,64.412,475.4Zm0-4.986h3.324v3.324H64.412Zm0,0" transform="translate(-59.176 -443.822)" fill="url(#linear-gradient)"/>
    <path id="Path_148" data-name="Path 148" d="M220.662,319.147h3.324a1.662,1.662,0,0,0,1.662-1.662v-3.324a1.662,1.662,0,0,0-1.662-1.662h-3.324A1.662,1.662,0,0,0,219,314.162v3.324A1.662,1.662,0,0,0,220.662,319.147Zm0-4.986h3.324v3.324h-3.324Zm0,0" transform="translate(-207.117 -295.881)" fill="url(#linear-gradient)"/>
    <path id="Path_149" data-name="Path 149" d="M376.912,319.147h3.324a1.662,1.662,0,0,0,1.662-1.662v-3.324a1.662,1.662,0,0,0-1.662-1.662h-3.324a1.662,1.662,0,0,0-1.662,1.662v3.324A1.662,1.662,0,0,0,376.912,319.147Zm0-4.986h3.324v3.324h-3.324Zm0,0" transform="translate(-355.058 -295.881)" fill="url(#linear-gradient)"/>
    <path id="Path_150" data-name="Path 150" d="M220.662,475.4h3.324a1.662,1.662,0,0,0,1.662-1.662v-3.324a1.662,1.662,0,0,0-1.662-1.662h-3.324A1.662,1.662,0,0,0,219,470.412v3.324A1.662,1.662,0,0,0,220.662,475.4Zm0-4.986h3.324v3.324h-3.324Zm0,0" transform="translate(-207.117 -443.822)" fill="url(#linear-gradient)"/>
    <path id="Path_151" data-name="Path 151" d="M64.412,631.647h3.324a1.662,1.662,0,0,0,1.662-1.662v-3.324A1.662,1.662,0,0,0,67.736,625H64.412a1.662,1.662,0,0,0-1.662,1.662v3.324A1.662,1.662,0,0,0,64.412,631.647Zm0-4.986h3.324v3.324H64.412Zm0,0" transform="translate(-59.176 -591.763)" fill="url(#linear-gradient)"/>
    <path id="Path_152" data-name="Path 152" d="M220.662,631.647h3.324a1.662,1.662,0,0,0,1.662-1.662v-3.324A1.662,1.662,0,0,0,223.986,625h-3.324A1.662,1.662,0,0,0,219,626.662v3.324A1.662,1.662,0,0,0,220.662,631.647Zm0-4.986h3.324v3.324h-3.324Zm0,0" transform="translate(-207.117 -591.763)" fill="url(#linear-gradient)"/>
    <path id="Path_153" data-name="Path 153" d="M265.875,843.75h1.662v1.662h-1.662Zm0,0" transform="translate(-251.499 -798.88)" fill="url(#linear-gradient)"/>
  </g>
</svg>
