<svg xmlns="http://www.w3.org/2000/svg" xmlns:xlink="http://www.w3.org/1999/xlink" width="46.737" height="46.776" viewBox="0 0 46.737 46.776">
  <defs>
    <linearGradient id="linear-gradient" x1="-0.702" y1="2.155" x2="-9.357" y2="9.365" gradientUnits="objectBoundingBox">
      <stop offset="0" stop-color="#0e6aa8"/>
      <stop offset="1" stop-color="#0d4b74"/>
    </linearGradient>
    <linearGradient id="linear-gradient-4" x1="-0.702" y1="2.155" x2="-9.357" y2="9.365" gradientUnits="objectBoundingBox">
      <stop offset="0" stop-color="#168ad8"/>
      <stop offset="1" stop-color="#0d4b74"/>
    </linearGradient>
  </defs>
  <g id="web-development" transform="translate(-0.001)">
    <path id="Path_136" data-name="Path 136" d="M339.527,110.9a.64.64,0,0,0-.576-.618.254.254,0,0,0-.161.042l-2.149,1.4a.559.559,0,0,0,0,.948l2.149,1.4a.254.254,0,0,0,.161.042.64.64,0,0,0,.576-.618.388.388,0,0,0-.152-.33l-1.49-.965,1.49-.965a.389.389,0,0,0,.152-.33Zm0,0" transform="translate(-305.646 -100.206)" fill="url(#linear-gradient)"/>
    <path id="Path_137" data-name="Path 137" d="M383.927,85.367a.372.372,0,0,0-.355.212l-2.97,6.1a.38.38,0,0,0-.042.161.468.468,0,0,0,.474.448.424.424,0,0,0,.381-.211l2.979-6.1a.367.367,0,0,0,.034-.161.485.485,0,0,0-.5-.448Zm0,0" transform="translate(-345.79 -77.568)" fill="url(#linear-gradient)"/>
    <path id="Path_138" data-name="Path 138" d="M435.5,111.719l-2.149-1.4a.256.256,0,0,0-.161-.042.64.64,0,0,0-.575.618.388.388,0,0,0,.152.33l1.489.965-1.489.965a.388.388,0,0,0-.152.33.64.64,0,0,0,.575.618.256.256,0,0,0,.161-.042l2.149-1.4a.559.559,0,0,0,0-.948Zm0,0" transform="translate(-393.092 -100.206)" fill="url(#linear-gradient)"/>
    <path id="Path_139" data-name="Path 139" d="M43.464,3.407H28.711A5.3,5.3,0,0,0,23.763,0h-9.9a5.3,5.3,0,0,0-5.3,5.3v6.013a2.234,2.234,0,0,0-.719,2.1l.389,2.141a1.864,1.864,0,0,0,.833,1.3,2.014,2.014,0,0,0,1.06.281v.38a8.329,8.329,0,0,0,3.089,5.836,12.613,12.613,0,0,0,1.146.923v1.148a.726.726,0,0,1-.593.714l-.047.01c-.012,0-1.188.31-2.726.746H5.978a2.042,2.042,0,0,0-2.037,2.188l.014.193a6.56,6.56,0,0,0-3.8,5.444v.029L0,44.178a2.567,2.567,0,0,0,2.567,2.6H35.063a2.568,2.568,0,0,0,2.567-2.6l-.156-9.429c0-.01,0-.019,0-.029a6.593,6.593,0,0,0-3.993-5.539l-.135-.062,0-.036a2.042,2.042,0,0,0-2.037-2.188H26.629c-1.537-.436-2.714-.743-2.726-.746l-.047-.011a.726.726,0,0,1-.593-.714V24.274a12.679,12.679,0,0,0,1.146-.923,10.01,10.01,0,0,0,2.654-3.674h4.452l-.778,3.139a1.237,1.237,0,0,0,.529,1.348,1.236,1.236,0,0,0,1.447-.055l5.769-4.432h4.982A3.277,3.277,0,0,0,46.738,16.4V6.681a3.278,3.278,0,0,0-3.274-3.274ZM27.5,12.492a2.956,2.956,0,0,1,.672-.141.884.884,0,0,1,.26.817l-.387,2.13c-.056.3-.171.368-.208.391a.669.669,0,0,1-.338.076ZM9.943,5.3A3.929,3.929,0,0,1,13.868,1.37h9.9A3.929,3.929,0,0,1,27.688,5.3v5.741a3.988,3.988,0,0,0-1.173.395V7.256a2.726,2.726,0,0,0-2.723-2.723H21.94a2.8,2.8,0,0,0-1.766.63l-.181.148a1.86,1.86,0,0,1-2.354,0l-.182-.149a2.8,2.8,0,0,0-1.766-.63H13.839a2.726,2.726,0,0,0-2.723,2.723v4.175a3.986,3.986,0,0,0-1.173-.394ZM9.8,15.689c-.037-.023-.152-.094-.207-.385L9.2,13.168a.886.886,0,0,1,.259-.817,2.957,2.957,0,0,1,.672.14v3.273a.671.671,0,0,1-.338-.076ZM3.734,44.91a1.866,1.866,0,0,0,.067.5H2.569a1.2,1.2,0,0,1-1.2-1.209l.156-9.414a5.03,5.03,0,0,1,2.535-4L4.9,42.516a2.026,2.026,0,0,0,.142.613,1.87,1.87,0,0,0-1.307,1.78Zm28.656-2.394.85-11.926A5.1,5.1,0,0,1,36.1,34.783l.156,9.411a1.2,1.2,0,0,1-1.2,1.212H33.831a1.867,1.867,0,0,0-1.556-2.347,2.017,2.017,0,0,0,.115-.543Zm.138,2.394a.5.5,0,0,1-.5.5H5.6a.5.5,0,0,1,0-.992H32.031A.5.5,0,0,1,32.527,44.91ZM31.8,28.476a.665.665,0,0,1,.178.506l-.958,13.437a.674.674,0,0,1-.671.624H6.936a.675.675,0,0,1-.671-.625L5.308,28.982a.672.672,0,0,1,.671-.72H31.31a.667.667,0,0,1,.492.214Zm-9.308-1.585H15.138a2.094,2.094,0,0,0,.6-1.47v-.307a6.945,6.945,0,0,0,3.076.873,6.948,6.948,0,0,0,3.076-.873v.307a2.094,2.094,0,0,0,.6,1.47Zm.994-4.556a7.962,7.962,0,0,1-4.672,2.282,7.963,7.963,0,0,1-4.671-2.282A6.994,6.994,0,0,1,11.5,17.515V13.2h.027a.958.958,0,0,0,.956-.957V7.256A1.354,1.354,0,0,1,13.839,5.9h1.852a1.423,1.423,0,0,1,.9.32l.182.149a3.23,3.23,0,0,0,4.089,0l.182-.148a1.424,1.424,0,0,1,.9-.32h1.851a1.354,1.354,0,0,1,1.353,1.353v4.986a.958.958,0,0,0,.983.956v4.317a6.993,6.993,0,0,1-2.639,4.82ZM45.368,16.4a1.906,1.906,0,0,1-1.9,1.9H38.249a.684.684,0,0,0-.417.142l-5.684,4.366.906-3.658a.685.685,0,0,0-.665-.85H27.436a5.3,5.3,0,0,0,.061-.792v-.38a2.014,2.014,0,0,0,1.059-.281,1.866,1.866,0,0,0,.834-1.306l.388-2.135a2.234,2.234,0,0,0-.719-2.1V5.3c0-.175-.009-.348-.025-.518H43.464a1.906,1.906,0,0,1,1.9,1.9Zm0,0" transform="translate(0)" fill="url(#linear-gradient-4)"/>
    <path id="Path_140" data-name="Path 140" d="M180.319,373.128a2.576,2.576,0,1,0-2.576-2.576A2.579,2.579,0,0,0,180.319,373.128Zm0-3.781a1.206,1.206,0,1,1-1.206,1.206A1.207,1.207,0,0,1,180.319,369.347Zm0,0" transform="translate(-161.503 -334.358)" fill="url(#linear-gradient)"/>
  </g>
</svg>
