<svg xmlns="http://www.w3.org/2000/svg" width="38.043" height="42.555" viewBox="0 0 38.043 42.555">
  <path id="Path_84" data-name="Path 84" d="M54.881,41.555H37.9a1.217,1.217,0,0,1-1.2-1.434l.912-5.058a.609.609,0,0,1,1.2.216L37.9,40.338H54.881L52.813,28.877H39.971l-.7,3.885a.609.609,0,0,1-1.2-.216l.7-3.885a1.216,1.216,0,0,1,1.2-1h1.217a2.644,2.644,0,0,0,2.4-1.405,6.694,6.694,0,0,0,.776-3.12,7.165,7.165,0,0,1-4.536-3.865H38.214l.72,2.958a.609.609,0,0,1-1.183.288l-.9-3.711a10.408,10.408,0,0,0-3.9-6.123,14.108,14.108,0,0,1-5.025-8.3A1.573,1.573,0,0,1,29.45,2.435h6.112l-.226-.929A1.218,1.218,0,0,1,36.519,0h2.84a.609.609,0,0,1,0,1.217h-2.84L40.48,17.484a6.065,6.065,0,0,0,11.824,0l.9-3.7a.609.609,0,0,1,1.183.288l-.9,3.7q-.034.141-.074.28h1.461a11.658,11.658,0,0,1,4.151-6.278,12.913,12.913,0,0,0,4.654-7.683.355.355,0,0,0-.345-.439H56.926L54.985,11.62a.609.609,0,0,1-1.183-.288L56.266,1.217H41.793a.609.609,0,0,1,0-1.217H56.266a1.217,1.217,0,0,1,1.183,1.505l-.226.929h6.112a1.572,1.572,0,0,1,1.528,1.944,14.108,14.108,0,0,1-5.025,8.3,10.408,10.408,0,0,0-3.9,6.123l-.9,3.711a.609.609,0,0,1-1.183-.288l.72-2.958H52.958a7.165,7.165,0,0,1-4.536,3.865,6.7,6.7,0,0,0,.776,3.12,2.644,2.644,0,0,0,2.4,1.405h1.218a1.216,1.216,0,0,1,1.2,1l2.067,11.461a1.218,1.218,0,0,1-1.2,1.434Zm-10.827-13.9h4.678a4.576,4.576,0,0,1-.581-.786,7.758,7.758,0,0,1-.937-3.5,7.7,7.7,0,0,1-1.642,0,7.758,7.758,0,0,1-.937,3.5A4.591,4.591,0,0,1,44.053,27.659ZM37.91,18.052h1.461q-.039-.139-.074-.28L35.859,3.652H29.45a.355.355,0,0,0-.345.439,12.914,12.914,0,0,0,4.654,7.683A11.659,11.659,0,0,1,37.91,18.052ZM49.161,37.8H43.623a.609.609,0,1,1,0-1.217h5.538a.609.609,0,0,1,0,1.217Zm1.623-2.435H48.827a.609.609,0,0,1,0-1.217h1.957a.609.609,0,1,1,0,1.217Zm-4.392,0H42a.609.609,0,0,1,0-1.217h4.392a.609.609,0,1,1,0,1.217Zm4.392-2.435H42a.609.609,0,0,1,0-1.217h8.784a.609.609,0,1,1,0,1.217Zm-1.7-17.994a4.988,4.988,0,0,1-2.047-.88c-.212-.123-.485-.283-.646-.362-.161.08-.434.239-.646.362-1.218.71-1.993,1.125-2.549.722s-.4-1.269-.1-2.647c.052-.24.119-.549.145-.726-.125-.128-.361-.339-.544-.5-1.052-.939-1.686-1.548-1.474-2.2s1.083-.773,2.486-.914c.244-.025.559-.056.735-.086.083-.159.211-.449.309-.673.568-1.291.951-2.082,1.638-2.082s1.07.791,1.638,2.082c.1.224.226.514.309.673.177.03.492.062.735.086,1.4.141,2.274.261,2.486.914s-.422,1.262-1.474,2.2c-.183.163-.419.374-.544.5.026.178.093.487.145.726.3,1.378.454,2.243-.1,2.647A.826.826,0,0,1,49.085,14.941Zm-2.693-2.492c.286,0,.575.162,1.259.561.266.155.731.426,1.073.586-.046-.375-.16-.9-.225-1.2a2.917,2.917,0,0,1-.144-1.371c.088-.272.332-.5.922-1.024.23-.205.631-.563.888-.839-.37-.072-.905-.126-1.212-.157A2.916,2.916,0,0,1,47.6,8.717c-.231-.168-.37-.469-.689-1.194-.124-.282-.341-.774-.523-1.1-.183.33-.4.822-.523,1.1-.319.725-.458,1.026-.689,1.194A2.917,2.917,0,0,1,43.832,9c-.306.031-.841.085-1.212.157.257.276.658.634.888.839.591.527.834.752.922,1.024a2.916,2.916,0,0,1-.144,1.371c-.065.3-.179.826-.225,1.2.342-.16.806-.43,1.073-.586C45.817,12.61,46.106,12.449,46.392,12.449Z" transform="translate(-27.371 0.5)" fill="#fff" stroke="#fff" stroke-width="1"/>
</svg>
