<svg xmlns="http://www.w3.org/2000/svg" width="43.125" height="44.302" viewBox="0 0 43.125 44.302">
  <path id="Path_120" data-name="Path 120" d="M14.615,37.074a.633.633,0,0,0-.633.633V42.6a.633.633,0,1,0,1.267,0V37.707A.633.633,0,0,0,14.615,37.074Zm27.051,0a.633.633,0,0,0-.894.06l-3.36,3.843a1.5,1.5,0,0,1-2.194.074l-2.012-2.011v-1.33a.633.633,0,1,0-1.267,0V42.6a.633.633,0,1,0,1.267,0v-1.77l1.117,1.116a2.77,2.77,0,0,0,4.043-.137l3.36-3.843a.633.633,0,0,0-.06-.894Zm-23-23.4a.633.633,0,0,0-.633.633v1.4a.633.633,0,1,0,1.267,0v-1.4A.633.633,0,0,0,18.662,13.672Zm6.974,2.662a.633.633,0,0,0,.633-.633v-1.4a.633.633,0,1,0-1.267,0v1.4A.633.633,0,0,0,25.636,16.334Zm23.12,9.382V18.9a1.132,1.132,0,0,0-1.131-1.131h-.674a1.129,1.129,0,0,0-1.089.83.747.747,0,0,1-1.441,0,1.129,1.129,0,0,0-1.089-.829h-.674A1.132,1.132,0,0,0,41.528,18.9c0,.135-.009,9.38.01,9.5l-4.053,4.623-2.02-3.772A6.655,6.655,0,0,0,30.7,25.854l-3.473-.569a1.073,1.073,0,0,1-.9-1.062V23.47a7.865,7.865,0,0,0,3.682-6.657v-.671h.244a2.319,2.319,0,0,0,.308-4.617,16.2,16.2,0,0,0,1.092-1.712,8.762,8.762,0,0,0,1.12-2.962A9.122,9.122,0,0,0,31.611.568,1.233,1.233,0,0,0,29.988.147,12.838,12.838,0,0,1,22.816,1.9a18.46,18.46,0,0,1-2.2-.355c-1.665-.34-3.238-.66-4.756.316a4.555,4.555,0,0,0-1.045.933.633.633,0,0,0,.977.807,3.286,3.286,0,0,1,.754-.674c1.085-.7,2.29-.452,3.818-.14a19.46,19.46,0,0,0,2.347.376,14.053,14.053,0,0,0,7.849-1.887,7.835,7.835,0,0,1,.963,5.361,7.523,7.523,0,0,1-.966,2.537,16.5,16.5,0,0,1-1.016,1.595,3.859,3.859,0,0,0-2.058-1.611,3.328,3.328,0,0,0-2.142.149,4.956,4.956,0,0,1-1.621.3h-.015a3.673,3.673,0,0,1-1.961-.58,4.573,4.573,0,0,0-1.933-.656c-1.509-.118-3.086.627-4.7,2.218a7.948,7.948,0,0,1-.454-4.572.633.633,0,1,0-1.234-.286,9.451,9.451,0,0,0,.695,5.77,2.326,2.326,0,0,0-2.4,2.319,2.352,2.352,0,0,0,2.563,2.319v.671a7.865,7.865,0,0,0,3.682,6.657v.881a1.054,1.054,0,0,1-.8,1.025l-5.259,1.3a5.688,5.688,0,0,0-4.335,5.534V42.6a.633.633,0,1,0,1.267,0V32.207a4.424,4.424,0,0,1,3.371-4.3l4.074-1a6.91,6.91,0,0,0,11.84-.184L30.5,27.1a5.381,5.381,0,0,1,3.849,2.754l2.044,3.816a1.231,1.231,0,0,0,2.012.23l4.313-4.919c.007,0,2.789,2.738,2.788,2.736L42.723,34.9a.633.633,0,0,0,.954.834l5.07-5.8a3.256,3.256,0,0,0,.01-4.22ZM30.01,12.771h.244a1.053,1.053,0,1,1,0,2.105H30.01ZM14.288,14.876h-.244a1.053,1.053,0,1,1,0-2.105h.244Zm1.267,1.937V11.961c1.5-1.641,2.9-2.423,4.159-2.324a3.381,3.381,0,0,1,1.43.508,4.892,4.892,0,0,0,2.559.732h.019a6.175,6.175,0,0,0,2-.362,2.161,2.161,0,0,1,1.4-.142,2.943,2.943,0,0,1,1.62,1.507v4.934a6.594,6.594,0,1,1-13.188,0Zm6.594,12.074a5.632,5.632,0,0,1-4.557-2.316,2.369,2.369,0,0,0,1.645-2.454,7.856,7.856,0,0,0,5.825,0,2.341,2.341,0,0,0,1.713,2.362,5.608,5.608,0,0,1-4.626,2.408ZM42.794,19.04h.436a2.013,2.013,0,0,0,3.823,0h.436v5.782a3.208,3.208,0,0,0-3.579.878l-1.117,1.274V19.04Zm5,10.063-1.454,1.663L43.577,28l1.287-1.468a1.944,1.944,0,0,1,2.679-.237A1.97,1.97,0,0,1,47.793,29.1ZM23.848,20.344a.633.633,0,1,0-.609-1.11,2.3,2.3,0,0,1-1.114.28,2.274,2.274,0,0,1-1.066-.28.633.633,0,0,0-.609,1.11,3.548,3.548,0,0,0,1.662.436A3.644,3.644,0,0,0,23.848,20.344Z" transform="translate(-7.074 0.57)" fill="#fff" stroke="#fff" stroke-width="1"/>
</svg>
