<svg xmlns="http://www.w3.org/2000/svg" width="45.871" height="26.156" viewBox="0 0 45.871 26.156">
  <g id="audience" transform="translate(0.5 0.5)">
    <path id="Path_110" data-name="Path 110" d="M57.411,49.951a6.08,6.08,0,1,0-6.08-6.08A6.08,6.08,0,0,0,57.411,49.951Zm0-10.48a4.4,4.4,0,1,1-4.4,4.4,4.4,4.4,0,0,1,4.4-4.4Z" transform="translate(-34.975 -37.791)" fill="#fff" stroke="#fff" stroke-width="1"/>
    <path id="Path_111" data-name="Path 111" d="M59.72,68.32A8.185,8.185,0,0,0,47.1,69.587c-.044-.046-.085-.1-.13-.139a10.305,10.305,0,0,0-14.578,0c-.044.045-.084.093-.128.138a8.191,8.191,0,0,0-15.018,4.53v2.62a.84.84,0,0,0,.84.84H61.281a.84.84,0,0,0,.84-.84v-2.62A8.158,8.158,0,0,0,59.72,68.32Zm-40.79,5.8A6.514,6.514,0,0,1,30.05,69.509a6.39,6.39,0,0,1,1.1,1.465A10.184,10.184,0,0,0,29.41,75.9H18.93ZM31.1,75.9a8.542,8.542,0,0,1,1.7-4.35,8.739,8.739,0,0,1,.792-.912,8.627,8.627,0,0,1,12.2,0,8.781,8.781,0,0,1,.792.912,8.535,8.535,0,0,1,1.7,4.35Zm29.345,0H49.961a10.186,10.186,0,0,0-1.738-4.924,6.512,6.512,0,0,1,12.218,3.144Z" transform="translate(-17.25 -52.42)" fill="#fff" stroke="#fff" stroke-width="1"/>
    <path id="Path_112" data-name="Path 112" d="M88.355,53.072a4.91,4.91,0,1,0-4.91-4.91,4.91,4.91,0,0,0,4.91,4.91Zm0-8.14a3.23,3.23,0,1,1-3.231,3.23A3.23,3.23,0,0,1,88.355,44.932Z" transform="translate(-51.678 -40.631)" fill="#fff" stroke="#fff" stroke-width="1"/>
    <path id="Path_113" data-name="Path 113" d="M29,53.072a4.91,4.91,0,1,0-4.91-4.91A4.91,4.91,0,0,0,29,53.072Zm0-8.14a3.23,3.23,0,1,1-3.23,3.23A3.23,3.23,0,0,1,29,44.932Z" transform="translate(-20.808 -40.631)" fill="#fff" stroke="#fff" stroke-width="1"/>
  </g>
</svg>
