<svg xmlns="http://www.w3.org/2000/svg" width="54.726" height="32.281" viewBox="0 0 54.726 32.281">
  <g id="visibility_1_" data-name="visibility (1)" transform="translate(0.558 -106.162)">
    <g id="Group_566" data-name="Group 566" transform="translate(0 106.662)">
      <g id="Group_565" data-name="Group 565" transform="translate(0)">
        <path id="Path_108" data-name="Path 108" d="M53.426,121.668c-.422-.615-10.571-15.006-26.614-15.006-13.766,0-26.033,14.309-26.549,14.919a1.121,1.121,0,0,0,0,1.443c.516.61,12.783,14.919,26.549,14.919s26.033-14.309,26.549-14.919A1.117,1.117,0,0,0,53.426,121.668ZM26.812,135.709c-11.036,0-21.528-10.524-24.194-13.406C5.28,119.418,15.761,108.9,26.812,108.9c12.913,0,22.027,10.508,24.252,13.346C48.5,125.033,37.942,135.709,26.812,135.709Z" transform="translate(0 -106.662)" fill="#fff" stroke="#fff" stroke-width="1"/>
      </g>
    </g>
    <g id="Group_568" data-name="Group 568" transform="translate(17.875 113.365)">
      <g id="Group_567" data-name="Group 567">
        <path id="Path_109" data-name="Path 109" d="M179.6,170.662a8.938,8.938,0,1,0,8.938,8.938A8.947,8.947,0,0,0,179.6,170.662Zm0,15.641a6.7,6.7,0,1,1,6.7-6.7A6.711,6.711,0,0,1,179.6,186.3Z" transform="translate(-170.662 -170.662)" fill="#fff" stroke="#fff" stroke-width="1"/>
      </g>
    </g>
  </g>
</svg>
