<svg xmlns="http://www.w3.org/2000/svg" width="114.012" height="73.301" viewBox="0 0 114.012 73.301">
  <g id="Group_671" data-name="Group 671" transform="translate(-1099.522 -229.197)" opacity="0.5">
    <rect id="Rectangle_575" data-name="Rectangle 575" width="95.637" height="24.271" transform="translate(1099.522 248.324)" fill="#0d4b74" opacity="0.3"/>
    <path id="Path_537" data-name="Path 537" d="M269.037,242.916a1.582,1.582,0,1,1-1.582-1.583A1.583,1.583,0,0,1,269.037,242.916Z" transform="translate(871 58)" fill="#ff8000" opacity="0.49"/>
    <path id="Path_538" data-name="Path 538" d="M275.161,242.916a1.582,1.582,0,1,1-1.582-1.583A1.582,1.582,0,0,1,275.161,242.916Z" transform="translate(871 58)" fill="#ff8000" opacity="0.49"/>
    <path id="Path_539" data-name="Path 539" d="M281.286,242.916a1.582,1.582,0,1,1-1.582-1.583A1.582,1.582,0,0,1,281.286,242.916Z" transform="translate(871 58)" fill="#ff8000" opacity="0.49"/>
    <path id="Path_540" data-name="Path 540" d="M287.411,242.916a1.582,1.582,0,1,1-1.582-1.583A1.582,1.582,0,0,1,287.411,242.916Z" transform="translate(871 58)" fill="#ff8000" opacity="0.49"/>
    <path id="Path_541" data-name="Path 541" d="M293.536,242.916a1.583,1.583,0,1,1-1.582-1.583A1.583,1.583,0,0,1,293.536,242.916Z" transform="translate(871 58)" fill="#ff8000" opacity="0.49"/>
    <path id="Path_542" data-name="Path 542" d="M299.66,242.916a1.582,1.582,0,1,1-1.582-1.583A1.582,1.582,0,0,1,299.66,242.916Z" transform="translate(871 58)" fill="#ff8000" opacity="0.49"/>
    <path id="Path_543" data-name="Path 543" d="M305.785,242.916a1.582,1.582,0,1,1-1.582-1.583A1.582,1.582,0,0,1,305.785,242.916Z" transform="translate(871 58)" fill="#ff8000" opacity="0.49"/>
    <path id="Path_544" data-name="Path 544" d="M311.91,242.916a1.582,1.582,0,1,1-1.582-1.583A1.582,1.582,0,0,1,311.91,242.916Z" transform="translate(871 58)" fill="#ff8000" opacity="0.49"/>
    <path id="Path_545" data-name="Path 545" d="M318.035,242.916a1.582,1.582,0,1,1-1.582-1.583A1.583,1.583,0,0,1,318.035,242.916Z" transform="translate(871 58)" fill="#ff8000" opacity="0.49"/>
    <path id="Path_546" data-name="Path 546" d="M324.16,242.916a1.583,1.583,0,1,1-1.583-1.583A1.583,1.583,0,0,1,324.16,242.916Z" transform="translate(871 58)" fill="#ff8000" opacity="0.49"/>
    <path id="Path_547" data-name="Path 547" d="M330.284,242.916a1.582,1.582,0,1,1-1.582-1.583A1.582,1.582,0,0,1,330.284,242.916Z" transform="translate(871 58)" fill="#ff8000" opacity="0.49"/>
    <path id="Path_548" data-name="Path 548" d="M336.409,242.916a1.582,1.582,0,1,1-1.582-1.583A1.582,1.582,0,0,1,336.409,242.916Z" transform="translate(871 58)" fill="#ff8000" opacity="0.49"/>
    <path id="Path_549" data-name="Path 549" d="M342.534,242.916a1.582,1.582,0,1,1-1.582-1.583A1.582,1.582,0,0,1,342.534,242.916Z" transform="translate(871 58)" fill="#ff8000" opacity="0.49"/>
    <path id="Path_550" data-name="Path 550" d="M269.037,172.779a1.582,1.582,0,1,1-1.582-1.582A1.582,1.582,0,0,1,269.037,172.779Z" transform="translate(871 58)" fill="#ff8000" opacity="0.49"/>
    <path id="Path_551" data-name="Path 551" d="M269.037,179.155a1.582,1.582,0,1,1-1.582-1.582A1.582,1.582,0,0,1,269.037,179.155Z" transform="translate(871 58)" fill="#ff8000" opacity="0.49"/>
    <path id="Path_552" data-name="Path 552" d="M269.037,185.531a1.582,1.582,0,1,1-1.582-1.582A1.582,1.582,0,0,1,269.037,185.531Z" transform="translate(871 58)" fill="#ff8000" opacity="0.49"/>
    <path id="Path_553" data-name="Path 553" d="M269.037,191.907a1.582,1.582,0,1,1-1.582-1.582A1.582,1.582,0,0,1,269.037,191.907Z" transform="translate(871 58)" fill="#ff8000" opacity="0.49"/>
    <path id="Path_554" data-name="Path 554" d="M269.037,198.283a1.582,1.582,0,1,1-1.582-1.582A1.582,1.582,0,0,1,269.037,198.283Z" transform="translate(871 58)" fill="#ff8000" opacity="0.49"/>
    <path id="Path_555" data-name="Path 555" d="M269.037,204.659a1.582,1.582,0,1,1-1.582-1.582A1.583,1.583,0,0,1,269.037,204.659Z" transform="translate(871 58)" fill="#ff8000" opacity="0.49"/>
    <path id="Path_556" data-name="Path 556" d="M269.037,211.035a1.582,1.582,0,1,1-1.582-1.582A1.583,1.583,0,0,1,269.037,211.035Z" transform="translate(871 58)" fill="#ff8000" opacity="0.49"/>
    <path id="Path_557" data-name="Path 557" d="M269.037,217.411a1.582,1.582,0,1,1-1.582-1.582A1.582,1.582,0,0,1,269.037,217.411Z" transform="translate(871 58)" fill="#ff8000" opacity="0.49"/>
    <path id="Path_558" data-name="Path 558" d="M269.037,223.787a1.582,1.582,0,1,1-1.582-1.582A1.582,1.582,0,0,1,269.037,223.787Z" transform="translate(871 58)" fill="#ff8000" opacity="0.49"/>
    <path id="Path_559" data-name="Path 559" d="M269.037,230.163a1.582,1.582,0,1,1-1.582-1.582A1.583,1.583,0,0,1,269.037,230.163Z" transform="translate(871 58)" fill="#ff8000" opacity="0.49"/>
    <path id="Path_560" data-name="Path 560" d="M269.037,236.539a1.582,1.582,0,1,1-1.582-1.582A1.583,1.583,0,0,1,269.037,236.539Z" transform="translate(871 58)" fill="#ff8000" opacity="0.49"/>
    <path id="Path_561" data-name="Path 561" d="M275.161,172.779a1.582,1.582,0,1,1-1.582-1.582A1.582,1.582,0,0,1,275.161,172.779Z" transform="translate(871 58)" fill="#ff8000" opacity="0.49"/>
    <path id="Path_562" data-name="Path 562" d="M275.161,179.155a1.582,1.582,0,1,1-1.582-1.582A1.582,1.582,0,0,1,275.161,179.155Z" transform="translate(871 58)" fill="#ff8000" opacity="0.49"/>
    <path id="Path_563" data-name="Path 563" d="M275.161,185.531a1.582,1.582,0,1,1-1.582-1.582A1.582,1.582,0,0,1,275.161,185.531Z" transform="translate(871 58)" fill="#ff8000" opacity="0.49"/>
    <path id="Path_564" data-name="Path 564" d="M275.161,191.907a1.582,1.582,0,1,1-1.582-1.582A1.582,1.582,0,0,1,275.161,191.907Z" transform="translate(871 58)" fill="#ff8000" opacity="0.49"/>
    <path id="Path_565" data-name="Path 565" d="M275.161,198.283a1.582,1.582,0,1,1-1.582-1.582A1.582,1.582,0,0,1,275.161,198.283Z" transform="translate(871 58)" fill="#ff8000" opacity="0.49"/>
    <path id="Path_566" data-name="Path 566" d="M275.161,204.659a1.582,1.582,0,1,1-1.582-1.582A1.582,1.582,0,0,1,275.161,204.659Z" transform="translate(871 58)" fill="#ff8000" opacity="0.49"/>
    <path id="Path_567" data-name="Path 567" d="M275.161,211.035a1.582,1.582,0,1,1-1.582-1.582A1.582,1.582,0,0,1,275.161,211.035Z" transform="translate(871 58)" fill="#ff8000" opacity="0.49"/>
    <path id="Path_568" data-name="Path 568" d="M275.161,217.411a1.582,1.582,0,1,1-1.582-1.582A1.582,1.582,0,0,1,275.161,217.411Z" transform="translate(871 58)" fill="#ff8000" opacity="0.49"/>
    <path id="Path_569" data-name="Path 569" d="M275.161,223.787a1.582,1.582,0,1,1-1.582-1.582A1.582,1.582,0,0,1,275.161,223.787Z" transform="translate(871 58)" fill="#ff8000" opacity="0.49"/>
    <path id="Path_570" data-name="Path 570" d="M275.161,230.163a1.582,1.582,0,1,1-1.582-1.582A1.582,1.582,0,0,1,275.161,230.163Z" transform="translate(871 58)" fill="#ff8000" opacity="0.49"/>
    <path id="Path_571" data-name="Path 571" d="M275.161,236.539a1.582,1.582,0,1,1-1.582-1.582A1.582,1.582,0,0,1,275.161,236.539Z" transform="translate(871 58)" fill="#ff8000" opacity="0.49"/>
    <circle id="Ellipse_203" data-name="Ellipse 203" cx="1.582" cy="1.582" r="1.582" transform="translate(1149.122 229.197)" fill="#ff8000" opacity="0.49"/>
    <circle id="Ellipse_204" data-name="Ellipse 204" cx="1.582" cy="1.582" r="1.582" transform="translate(1149.122 235.572)" fill="#ff8000" opacity="0.49"/>
    <circle id="Ellipse_205" data-name="Ellipse 205" cx="1.582" cy="1.582" r="1.582" transform="translate(1149.122 241.949)" fill="#ff8000" opacity="0.49"/>
    <circle id="Ellipse_206" data-name="Ellipse 206" cx="1.582" cy="1.582" r="1.582" transform="translate(1149.122 248.324)" fill="#ff8000" opacity="0.49"/>
    <path id="Path_572" data-name="Path 572" d="M281.286,198.283A1.582,1.582,0,1,1,279.7,196.7,1.582,1.582,0,0,1,281.286,198.283Z" transform="translate(871 58)" fill="#ff8000" opacity="0.49"/>
    <path id="Path_573" data-name="Path 573" d="M281.286,204.659a1.582,1.582,0,1,1-1.582-1.582A1.582,1.582,0,0,1,281.286,204.659Z" transform="translate(871 58)" fill="#ff8000" opacity="0.49"/>
    <circle id="Ellipse_207" data-name="Ellipse 207" cx="1.582" cy="1.582" r="1.582" transform="translate(1149.122 267.453)" fill="#ff8000" opacity="0.49"/>
    <circle id="Ellipse_208" data-name="Ellipse 208" cx="1.582" cy="1.582" r="1.582" transform="translate(1149.122 273.83)" fill="#ff8000" opacity="0.49"/>
    <circle id="Ellipse_209" data-name="Ellipse 209" cx="1.582" cy="1.582" r="1.582" transform="translate(1149.122 280.205)" fill="#ff8000" opacity="0.49"/>
    <circle id="Ellipse_210" data-name="Ellipse 210" cx="1.582" cy="1.582" r="1.582" transform="translate(1149.122 286.582)" fill="#ff8000" opacity="0.49"/>
    <path id="Path_574" data-name="Path 574" d="M281.286,236.539a1.582,1.582,0,1,1-1.582-1.582A1.582,1.582,0,0,1,281.286,236.539Z" transform="translate(871 58)" fill="#ff8000" opacity="0.49"/>
    <path id="Path_575" data-name="Path 575" d="M287.411,172.779a1.582,1.582,0,1,1-1.582-1.582A1.582,1.582,0,0,1,287.411,172.779Z" transform="translate(871 58)" fill="#ff8000" opacity="0.49"/>
    <path id="Path_576" data-name="Path 576" d="M287.411,179.155a1.582,1.582,0,1,1-1.582-1.582A1.582,1.582,0,0,1,287.411,179.155Z" transform="translate(871 58)" fill="#ff8000" opacity="0.49"/>
    <path id="Path_577" data-name="Path 577" d="M287.411,185.531a1.582,1.582,0,1,1-1.582-1.582A1.582,1.582,0,0,1,287.411,185.531Z" transform="translate(871 58)" fill="#ff8000" opacity="0.49"/>
    <path id="Path_578" data-name="Path 578" d="M287.411,191.907a1.582,1.582,0,1,1-1.582-1.582A1.582,1.582,0,0,1,287.411,191.907Z" transform="translate(871 58)" fill="#ff8000" opacity="0.49"/>
    <path id="Path_579" data-name="Path 579" d="M287.411,198.283a1.582,1.582,0,1,1-1.582-1.582A1.582,1.582,0,0,1,287.411,198.283Z" transform="translate(871 58)" fill="#ff8000" opacity="0.49"/>
    <path id="Path_580" data-name="Path 580" d="M287.411,204.659a1.582,1.582,0,1,1-1.582-1.582A1.582,1.582,0,0,1,287.411,204.659Z" transform="translate(871 58)" fill="#ff8000" opacity="0.49"/>
    <path id="Path_581" data-name="Path 581" d="M287.411,211.035a1.582,1.582,0,1,1-1.582-1.582A1.582,1.582,0,0,1,287.411,211.035Z" transform="translate(871 58)" fill="#ff8000" opacity="0.49"/>
    <path id="Path_582" data-name="Path 582" d="M287.411,217.411a1.582,1.582,0,1,1-1.582-1.582A1.582,1.582,0,0,1,287.411,217.411Z" transform="translate(871 58)" fill="#ff8000" opacity="0.49"/>
    <path id="Path_583" data-name="Path 583" d="M287.411,223.787a1.582,1.582,0,1,1-1.582-1.582A1.582,1.582,0,0,1,287.411,223.787Z" transform="translate(871 58)" fill="#ff8000" opacity="0.49"/>
    <path id="Path_584" data-name="Path 584" d="M287.411,230.163a1.582,1.582,0,1,1-1.582-1.582A1.582,1.582,0,0,1,287.411,230.163Z" transform="translate(871 58)" fill="#ff8000" opacity="0.49"/>
    <path id="Path_585" data-name="Path 585" d="M287.411,236.539a1.582,1.582,0,1,1-1.582-1.582A1.582,1.582,0,0,1,287.411,236.539Z" transform="translate(871 58)" fill="#ff8000" opacity="0.49"/>
    <path id="Path_586" data-name="Path 586" d="M293.536,172.779a1.583,1.583,0,1,1-1.582-1.582A1.582,1.582,0,0,1,293.536,172.779Z" transform="translate(871 58)" fill="#ff8000" opacity="0.49"/>
    <path id="Path_587" data-name="Path 587" d="M293.536,179.155a1.583,1.583,0,1,1-1.582-1.582A1.582,1.582,0,0,1,293.536,179.155Z" transform="translate(871 58)" fill="#ff8000" opacity="0.49"/>
    <path id="Path_588" data-name="Path 588" d="M293.536,185.531a1.583,1.583,0,1,1-1.582-1.582A1.582,1.582,0,0,1,293.536,185.531Z" transform="translate(871 58)" fill="#ff8000" opacity="0.49"/>
    <path id="Path_589" data-name="Path 589" d="M293.536,191.907a1.583,1.583,0,1,1-1.582-1.582A1.582,1.582,0,0,1,293.536,191.907Z" transform="translate(871 58)" fill="#ff8000" opacity="0.49"/>
    <path id="Path_590" data-name="Path 590" d="M293.536,198.283a1.583,1.583,0,1,1-1.582-1.582A1.582,1.582,0,0,1,293.536,198.283Z" transform="translate(871 58)" fill="#ff8000" opacity="0.49"/>
    <path id="Path_591" data-name="Path 591" d="M293.536,204.659a1.583,1.583,0,1,1-1.582-1.582A1.583,1.583,0,0,1,293.536,204.659Z" transform="translate(871 58)" fill="#ff8000" opacity="0.49"/>
    <path id="Path_592" data-name="Path 592" d="M293.536,211.035a1.583,1.583,0,1,1-1.582-1.582A1.583,1.583,0,0,1,293.536,211.035Z" transform="translate(871 58)" fill="#ff8000" opacity="0.49"/>
    <path id="Path_593" data-name="Path 593" d="M293.536,217.411a1.583,1.583,0,1,1-1.582-1.582A1.582,1.582,0,0,1,293.536,217.411Z" transform="translate(871 58)" fill="#ff8000" opacity="0.49"/>
    <path id="Path_594" data-name="Path 594" d="M293.536,223.787a1.583,1.583,0,1,1-1.582-1.582A1.582,1.582,0,0,1,293.536,223.787Z" transform="translate(871 58)" fill="#ff8000" opacity="0.49"/>
    <path id="Path_595" data-name="Path 595" d="M293.536,230.163a1.583,1.583,0,1,1-1.582-1.582A1.583,1.583,0,0,1,293.536,230.163Z" transform="translate(871 58)" fill="#ff8000" opacity="0.49"/>
    <path id="Path_596" data-name="Path 596" d="M293.536,236.539a1.583,1.583,0,1,1-1.582-1.582A1.583,1.583,0,0,1,293.536,236.539Z" transform="translate(871 58)" fill="#ff8000" opacity="0.49"/>
    <circle id="Ellipse_211" data-name="Ellipse 211" cx="1.582" cy="1.582" r="1.582" transform="translate(1167.496 229.197)" fill="#ff8000" opacity="0.49"/>
    <circle id="Ellipse_212" data-name="Ellipse 212" cx="1.582" cy="1.582" r="1.582" transform="translate(1167.496 235.572)" fill="#ff8000" opacity="0.49"/>
    <circle id="Ellipse_213" data-name="Ellipse 213" cx="1.582" cy="1.582" r="1.582" transform="translate(1167.496 241.949)" fill="#ff8000" opacity="0.49"/>
    <circle id="Ellipse_214" data-name="Ellipse 214" cx="1.582" cy="1.582" r="1.582" transform="translate(1167.496 248.324)" fill="#ff8000" opacity="0.49"/>
    <path id="Path_597" data-name="Path 597" d="M299.66,198.283a1.582,1.582,0,1,1-1.582-1.582A1.582,1.582,0,0,1,299.66,198.283Z" transform="translate(871 58)" fill="#ff8000" opacity="0.49"/>
    <path id="Path_598" data-name="Path 598" d="M299.66,204.659a1.582,1.582,0,1,1-1.582-1.582A1.582,1.582,0,0,1,299.66,204.659Z" transform="translate(871 58)" fill="#ff8000" opacity="0.49"/>
    <circle id="Ellipse_215" data-name="Ellipse 215" cx="1.582" cy="1.582" r="1.582" transform="translate(1167.496 267.453)" fill="#ff8000" opacity="0.49"/>
    <circle id="Ellipse_216" data-name="Ellipse 216" cx="1.582" cy="1.582" r="1.582" transform="translate(1167.496 273.83)" fill="#ff8000" opacity="0.49"/>
    <circle id="Ellipse_217" data-name="Ellipse 217" cx="1.582" cy="1.582" r="1.582" transform="translate(1167.496 280.205)" fill="#ff8000" opacity="0.49"/>
    <circle id="Ellipse_218" data-name="Ellipse 218" cx="1.582" cy="1.582" r="1.582" transform="translate(1167.496 286.582)" fill="#ff8000" opacity="0.49"/>
    <path id="Path_599" data-name="Path 599" d="M299.66,236.539a1.582,1.582,0,1,1-1.582-1.582A1.582,1.582,0,0,1,299.66,236.539Z" transform="translate(871 58)" fill="#ff8000" opacity="0.49"/>
    <circle id="Ellipse_219" data-name="Ellipse 219" cx="1.582" cy="1.582" r="1.582" transform="translate(1173.621 229.197)" fill="#ff8000" opacity="0.49"/>
    <circle id="Ellipse_220" data-name="Ellipse 220" cx="1.582" cy="1.582" r="1.582" transform="translate(1173.621 235.572)" fill="#ff8000" opacity="0.49"/>
    <circle id="Ellipse_221" data-name="Ellipse 221" cx="1.582" cy="1.582" r="1.582" transform="translate(1173.621 241.949)" fill="#ff8000" opacity="0.49"/>
    <circle id="Ellipse_222" data-name="Ellipse 222" cx="1.582" cy="1.582" r="1.582" transform="translate(1173.621 248.324)" fill="#ff8000" opacity="0.49"/>
    <path id="Path_600" data-name="Path 600" d="M305.785,198.283A1.582,1.582,0,1,1,304.2,196.7,1.582,1.582,0,0,1,305.785,198.283Z" transform="translate(871 58)" fill="#ff8000" opacity="0.49"/>
    <path id="Path_601" data-name="Path 601" d="M305.785,204.659a1.582,1.582,0,1,1-1.582-1.582A1.582,1.582,0,0,1,305.785,204.659Z" transform="translate(871 58)" fill="#ff8000" opacity="0.49"/>
    <circle id="Ellipse_223" data-name="Ellipse 223" cx="1.582" cy="1.582" r="1.582" transform="translate(1173.621 267.453)" fill="#ff8000" opacity="0.49"/>
    <circle id="Ellipse_224" data-name="Ellipse 224" cx="1.582" cy="1.582" r="1.582" transform="translate(1173.621 273.83)" fill="#ff8000" opacity="0.49"/>
    <circle id="Ellipse_225" data-name="Ellipse 225" cx="1.582" cy="1.582" r="1.582" transform="translate(1173.621 280.205)" fill="#ff8000" opacity="0.49"/>
    <circle id="Ellipse_226" data-name="Ellipse 226" cx="1.582" cy="1.582" r="1.582" transform="translate(1173.621 286.582)" fill="#ff8000" opacity="0.49"/>
    <path id="Path_602" data-name="Path 602" d="M305.785,236.539a1.582,1.582,0,1,1-1.582-1.582A1.582,1.582,0,0,1,305.785,236.539Z" transform="translate(871 58)" fill="#ff8000" opacity="0.49"/>
    <path id="Path_603" data-name="Path 603" d="M311.91,172.779a1.582,1.582,0,1,1-1.582-1.582A1.582,1.582,0,0,1,311.91,172.779Z" transform="translate(871 58)" fill="#ff8000" opacity="0.49"/>
    <path id="Path_604" data-name="Path 604" d="M311.91,179.155a1.582,1.582,0,1,1-1.582-1.582A1.582,1.582,0,0,1,311.91,179.155Z" transform="translate(871 58)" fill="#ff8000" opacity="0.49"/>
    <path id="Path_605" data-name="Path 605" d="M311.91,185.531a1.582,1.582,0,1,1-1.582-1.582A1.582,1.582,0,0,1,311.91,185.531Z" transform="translate(871 58)" fill="#ff8000" opacity="0.49"/>
    <path id="Path_606" data-name="Path 606" d="M311.91,191.907a1.582,1.582,0,1,1-1.582-1.582A1.582,1.582,0,0,1,311.91,191.907Z" transform="translate(871 58)" fill="#ff8000" opacity="0.49"/>
    <path id="Path_607" data-name="Path 607" d="M311.91,198.283a1.582,1.582,0,1,1-1.582-1.582A1.582,1.582,0,0,1,311.91,198.283Z" transform="translate(871 58)" fill="#ff8000" opacity="0.49"/>
    <path id="Path_608" data-name="Path 608" d="M311.91,204.659a1.582,1.582,0,1,1-1.582-1.582A1.582,1.582,0,0,1,311.91,204.659Z" transform="translate(871 58)" fill="#ff8000" opacity="0.49"/>
    <path id="Path_609" data-name="Path 609" d="M311.91,211.035a1.582,1.582,0,1,1-1.582-1.582A1.582,1.582,0,0,1,311.91,211.035Z" transform="translate(871 58)" fill="#ff8000" opacity="0.49"/>
    <path id="Path_610" data-name="Path 610" d="M311.91,217.411a1.582,1.582,0,1,1-1.582-1.582A1.582,1.582,0,0,1,311.91,217.411Z" transform="translate(871 58)" fill="#ff8000" opacity="0.49"/>
    <path id="Path_611" data-name="Path 611" d="M311.91,223.787a1.582,1.582,0,1,1-1.582-1.582A1.582,1.582,0,0,1,311.91,223.787Z" transform="translate(871 58)" fill="#ff8000" opacity="0.49"/>
    <path id="Path_612" data-name="Path 612" d="M311.91,230.163a1.582,1.582,0,1,1-1.582-1.582A1.582,1.582,0,0,1,311.91,230.163Z" transform="translate(871 58)" fill="#ff8000" opacity="0.49"/>
    <path id="Path_613" data-name="Path 613" d="M311.91,236.539a1.582,1.582,0,1,1-1.582-1.582A1.582,1.582,0,0,1,311.91,236.539Z" transform="translate(871 58)" fill="#ff8000" opacity="0.49"/>
    <circle id="Ellipse_227" data-name="Ellipse 227" cx="1.582" cy="1.582" r="1.582" transform="translate(1185.871 229.197)" fill="#ff8000" opacity="0.49"/>
    <circle id="Ellipse_228" data-name="Ellipse 228" cx="1.582" cy="1.582" r="1.582" transform="translate(1185.871 235.572)" fill="#ff8000" opacity="0.49"/>
    <circle id="Ellipse_229" data-name="Ellipse 229" cx="1.582" cy="1.582" r="1.582" transform="translate(1185.871 241.949)" fill="#ff8000" opacity="0.49"/>
    <circle id="Ellipse_230" data-name="Ellipse 230" cx="1.582" cy="1.582" r="1.582" transform="translate(1185.871 248.324)" fill="#ff8000" opacity="0.49"/>
    <path id="Path_614" data-name="Path 614" d="M318.035,198.283a1.582,1.582,0,1,1-1.582-1.582A1.582,1.582,0,0,1,318.035,198.283Z" transform="translate(871 58)" fill="#ff8000" opacity="0.49"/>
    <path id="Path_615" data-name="Path 615" d="M318.035,204.659a1.582,1.582,0,1,1-1.582-1.582A1.583,1.583,0,0,1,318.035,204.659Z" transform="translate(871 58)" fill="#ff8000" opacity="0.49"/>
    <circle id="Ellipse_231" data-name="Ellipse 231" cx="1.582" cy="1.582" r="1.582" transform="translate(1185.871 267.453)" fill="#ff8000" opacity="0.49"/>
    <circle id="Ellipse_232" data-name="Ellipse 232" cx="1.582" cy="1.582" r="1.582" transform="translate(1185.871 273.83)" fill="#ff8000" opacity="0.49"/>
    <circle id="Ellipse_233" data-name="Ellipse 233" cx="1.582" cy="1.582" r="1.582" transform="translate(1185.871 280.205)" fill="#ff8000" opacity="0.49"/>
    <circle id="Ellipse_234" data-name="Ellipse 234" cx="1.582" cy="1.582" r="1.582" transform="translate(1185.871 286.582)" fill="#ff8000" opacity="0.49"/>
    <path id="Path_616" data-name="Path 616" d="M318.035,236.539a1.582,1.582,0,1,1-1.582-1.582A1.583,1.583,0,0,1,318.035,236.539Z" transform="translate(871 58)" fill="#ff8000" opacity="0.49"/>
    <circle id="Ellipse_235" data-name="Ellipse 235" cx="1.582" cy="1.582" r="1.582" transform="translate(1191.995 229.197)" fill="#ff8000" opacity="0.49"/>
    <circle id="Ellipse_236" data-name="Ellipse 236" cx="1.582" cy="1.582" r="1.582" transform="translate(1191.995 235.572)" fill="#ff8000" opacity="0.49"/>
    <circle id="Ellipse_237" data-name="Ellipse 237" cx="1.582" cy="1.582" r="1.582" transform="translate(1191.995 241.949)" fill="#ff8000" opacity="0.49"/>
    <circle id="Ellipse_238" data-name="Ellipse 238" cx="1.582" cy="1.582" r="1.582" transform="translate(1191.995 248.324)" fill="#ff8000" opacity="0.49"/>
    <path id="Path_617" data-name="Path 617" d="M324.16,198.283a1.583,1.583,0,1,1-1.583-1.582A1.583,1.583,0,0,1,324.16,198.283Z" transform="translate(871 58)" fill="#ff8000" opacity="0.49"/>
    <path id="Path_618" data-name="Path 618" d="M324.16,204.659a1.583,1.583,0,1,1-1.583-1.582A1.583,1.583,0,0,1,324.16,204.659Z" transform="translate(871 58)" fill="#ff8000" opacity="0.49"/>
    <circle id="Ellipse_239" data-name="Ellipse 239" cx="1.582" cy="1.582" r="1.582" transform="translate(1191.995 267.453)" fill="#ff8000" opacity="0.49"/>
    <circle id="Ellipse_240" data-name="Ellipse 240" cx="1.582" cy="1.582" r="1.582" transform="translate(1191.995 273.83)" fill="#ff8000" opacity="0.49"/>
    <circle id="Ellipse_241" data-name="Ellipse 241" cx="1.582" cy="1.582" r="1.582" transform="translate(1191.995 280.205)" fill="#ff8000" opacity="0.49"/>
    <circle id="Ellipse_242" data-name="Ellipse 242" cx="1.582" cy="1.582" r="1.582" transform="translate(1191.995 286.582)" fill="#ff8000" opacity="0.49"/>
    <path id="Path_619" data-name="Path 619" d="M324.16,236.539a1.583,1.583,0,1,1-1.583-1.582A1.583,1.583,0,0,1,324.16,236.539Z" transform="translate(871 58)" fill="#ff8000" opacity="0.49"/>
    <path id="Path_620" data-name="Path 620" d="M330.284,172.779A1.582,1.582,0,1,1,328.7,171.2,1.582,1.582,0,0,1,330.284,172.779Z" transform="translate(871 58)" fill="#ff8000" opacity="0.49"/>
    <path id="Path_621" data-name="Path 621" d="M330.284,179.155a1.582,1.582,0,1,1-1.582-1.582A1.582,1.582,0,0,1,330.284,179.155Z" transform="translate(871 58)" fill="#ff8000" opacity="0.49"/>
    <path id="Path_622" data-name="Path 622" d="M330.284,185.531a1.582,1.582,0,1,1-1.582-1.582A1.582,1.582,0,0,1,330.284,185.531Z" transform="translate(871 58)" fill="#ff8000" opacity="0.49"/>
    <path id="Path_623" data-name="Path 623" d="M330.284,191.907a1.582,1.582,0,1,1-1.582-1.582A1.582,1.582,0,0,1,330.284,191.907Z" transform="translate(871 58)" fill="#ff8000" opacity="0.49"/>
    <path id="Path_624" data-name="Path 624" d="M330.284,198.283A1.582,1.582,0,1,1,328.7,196.7,1.582,1.582,0,0,1,330.284,198.283Z" transform="translate(871 58)" fill="#ff8000" opacity="0.49"/>
    <path id="Path_625" data-name="Path 625" d="M330.284,204.659a1.582,1.582,0,1,1-1.582-1.582A1.582,1.582,0,0,1,330.284,204.659Z" transform="translate(871 58)" fill="#ff8000" opacity="0.49"/>
    <path id="Path_626" data-name="Path 626" d="M330.284,211.035a1.582,1.582,0,1,1-1.582-1.582A1.582,1.582,0,0,1,330.284,211.035Z" transform="translate(871 58)" fill="#ff8000" opacity="0.49"/>
    <path id="Path_627" data-name="Path 627" d="M330.284,217.411a1.582,1.582,0,1,1-1.582-1.582A1.582,1.582,0,0,1,330.284,217.411Z" transform="translate(871 58)" fill="#ff8000" opacity="0.49"/>
    <path id="Path_628" data-name="Path 628" d="M330.284,223.787a1.582,1.582,0,1,1-1.582-1.582A1.582,1.582,0,0,1,330.284,223.787Z" transform="translate(871 58)" fill="#ff8000" opacity="0.49"/>
    <path id="Path_629" data-name="Path 629" d="M330.284,230.163a1.582,1.582,0,1,1-1.582-1.582A1.582,1.582,0,0,1,330.284,230.163Z" transform="translate(871 58)" fill="#ff8000" opacity="0.49"/>
    <path id="Path_630" data-name="Path 630" d="M330.284,236.539a1.582,1.582,0,1,1-1.582-1.582A1.582,1.582,0,0,1,330.284,236.539Z" transform="translate(871 58)" fill="#ff8000" opacity="0.49"/>
    <circle id="Ellipse_243" data-name="Ellipse 243" cx="1.582" cy="1.582" r="1.582" transform="translate(1204.245 229.197)" fill="#ff8000" opacity="0.49"/>
    <circle id="Ellipse_244" data-name="Ellipse 244" cx="1.582" cy="1.582" r="1.582" transform="translate(1204.245 235.572)" fill="#ff8000" opacity="0.49"/>
    <circle id="Ellipse_245" data-name="Ellipse 245" cx="1.582" cy="1.582" r="1.582" transform="translate(1204.245 241.949)" fill="#ff8000" opacity="0.49"/>
    <circle id="Ellipse_246" data-name="Ellipse 246" cx="1.582" cy="1.582" r="1.582" transform="translate(1204.245 248.324)" fill="#ff8000" opacity="0.49"/>
    <path id="Path_631" data-name="Path 631" d="M336.409,198.283a1.582,1.582,0,1,1-1.582-1.582A1.582,1.582,0,0,1,336.409,198.283Z" transform="translate(871 58)" fill="#ff8000" opacity="0.49"/>
    <path id="Path_632" data-name="Path 632" d="M336.409,204.659a1.582,1.582,0,1,1-1.582-1.582A1.582,1.582,0,0,1,336.409,204.659Z" transform="translate(871 58)" fill="#ff8000" opacity="0.49"/>
    <circle id="Ellipse_247" data-name="Ellipse 247" cx="1.582" cy="1.582" r="1.582" transform="translate(1204.245 267.453)" fill="#ff8000" opacity="0.49"/>
    <circle id="Ellipse_248" data-name="Ellipse 248" cx="1.582" cy="1.582" r="1.582" transform="translate(1204.245 273.83)" fill="#ff8000" opacity="0.49"/>
    <circle id="Ellipse_249" data-name="Ellipse 249" cx="1.582" cy="1.582" r="1.582" transform="translate(1204.245 280.205)" fill="#ff8000" opacity="0.49"/>
    <circle id="Ellipse_250" data-name="Ellipse 250" cx="1.582" cy="1.582" r="1.582" transform="translate(1204.245 286.582)" fill="#ff8000" opacity="0.49"/>
    <path id="Path_633" data-name="Path 633" d="M336.409,236.539a1.582,1.582,0,1,1-1.582-1.582A1.582,1.582,0,0,1,336.409,236.539Z" transform="translate(871 58)" fill="#ff8000" opacity="0.49"/>
    <circle id="Ellipse_251" data-name="Ellipse 251" cx="1.582" cy="1.582" r="1.582" transform="translate(1210.37 229.197)" fill="#ff8000" opacity="0.49"/>
    <circle id="Ellipse_252" data-name="Ellipse 252" cx="1.582" cy="1.582" r="1.582" transform="translate(1210.37 235.572)" fill="#ff8000" opacity="0.49"/>
    <circle id="Ellipse_253" data-name="Ellipse 253" cx="1.582" cy="1.582" r="1.582" transform="translate(1210.37 241.949)" fill="#ff8000" opacity="0.49"/>
    <circle id="Ellipse_254" data-name="Ellipse 254" cx="1.582" cy="1.582" r="1.582" transform="translate(1210.37 248.324)" fill="#ff8000" opacity="0.49"/>
    <path id="Path_634" data-name="Path 634" d="M342.534,198.283a1.582,1.582,0,1,1-1.582-1.582A1.582,1.582,0,0,1,342.534,198.283Z" transform="translate(871 58)" fill="#ff8000" opacity="0.49"/>
    <path id="Path_635" data-name="Path 635" d="M342.534,204.659a1.582,1.582,0,1,1-1.582-1.582A1.582,1.582,0,0,1,342.534,204.659Z" transform="translate(871 58)" fill="#ff8000" opacity="0.49"/>
    <circle id="Ellipse_255" data-name="Ellipse 255" cx="1.582" cy="1.582" r="1.582" transform="translate(1210.37 267.453)" fill="#ff8000" opacity="0.49"/>
    <circle id="Ellipse_256" data-name="Ellipse 256" cx="1.582" cy="1.582" r="1.582" transform="translate(1210.37 273.83)" fill="#ff8000" opacity="0.49"/>
    <circle id="Ellipse_257" data-name="Ellipse 257" cx="1.582" cy="1.582" r="1.582" transform="translate(1210.37 280.205)" fill="#ff8000" opacity="0.49"/>
    <circle id="Ellipse_258" data-name="Ellipse 258" cx="1.582" cy="1.582" r="1.582" transform="translate(1210.37 286.582)" fill="#ff8000" opacity="0.49"/>
    <path id="Path_636" data-name="Path 636" d="M342.534,236.539a1.582,1.582,0,1,1-1.582-1.582A1.582,1.582,0,0,1,342.534,236.539Z" transform="translate(871 58)" fill="#ff8000" opacity="0.49"/>
  </g>
</svg>
