<svg xmlns="http://www.w3.org/2000/svg" width="44.712" height="50.037" viewBox="0 0 44.712 50.037">
  <path id="Path_84" data-name="Path 84" d="M59.742,49.037H39.709A1.437,1.437,0,0,1,38.3,47.345l1.077-5.969a.718.718,0,0,1,1.414.255L39.709,47.6H59.742L57.3,34.076H42.148l-.827,4.584a.718.718,0,0,1-1.414-.255l.827-4.584a1.435,1.435,0,0,1,1.414-1.182h1.437a3.12,3.12,0,0,0,2.829-1.658A7.9,7.9,0,0,0,47.33,27.3a8.455,8.455,0,0,1-5.353-4.56h-1.9l.85,3.49a.718.718,0,0,1-1.4.34L38.462,22.19a12.281,12.281,0,0,0-4.6-7.225,16.648,16.648,0,0,1-5.93-9.8,1.856,1.856,0,0,1,1.8-2.295h7.212l-.267-1.1A1.437,1.437,0,0,1,38.074,0h3.351a.718.718,0,0,1,0,1.437H38.074l4.675,19.2a7.157,7.157,0,0,0,13.953,0l1.063-4.366a.718.718,0,0,1,1.4.34L58.1,20.972q-.041.167-.087.33h1.724a13.757,13.757,0,0,1,4.9-7.408,15.238,15.238,0,0,0,5.492-9.066.419.419,0,0,0-.407-.518H62.156l-2.29,9.4a.718.718,0,0,1-1.4-.34L61.377,1.437H44.3A.718.718,0,0,1,44.3,0H61.377a1.437,1.437,0,0,1,1.4,1.777l-.267,1.1h7.212a1.856,1.856,0,0,1,1.8,2.294,16.648,16.648,0,0,1-5.93,9.8,12.282,12.282,0,0,0-4.6,7.225l-1.066,4.379a.718.718,0,0,1-1.4-.34l.85-3.49h-1.9a8.455,8.455,0,0,1-5.353,4.56,7.9,7.9,0,0,0,.916,3.682,3.12,3.12,0,0,0,2.829,1.658H57.3a1.435,1.435,0,0,1,1.414,1.182l2.439,13.524a1.437,1.437,0,0,1-1.414,1.692Zm-12.777-16.4h5.52a5.4,5.4,0,0,1-.685-.928,9.155,9.155,0,0,1-1.106-4.136,9.092,9.092,0,0,1-1.938,0,9.155,9.155,0,0,1-1.106,4.136A5.418,5.418,0,0,1,46.966,32.639ZM39.716,21.3H41.44q-.046-.163-.087-.33L37.3,4.31H29.733a.419.419,0,0,0-.407.518,15.239,15.239,0,0,0,5.492,9.066A13.758,13.758,0,0,1,39.716,21.3ZM52.993,44.611H46.458a.718.718,0,0,1,0-1.437h6.535a.718.718,0,0,1,0,1.437Zm1.916-2.873H52.6a.718.718,0,0,1,0-1.437h2.31a.718.718,0,1,1,0,1.437Zm-5.183,0H44.543a.718.718,0,0,1,0-1.437h5.183a.718.718,0,0,1,0,1.437Zm5.183-2.873H44.543a.718.718,0,0,1,0-1.437H54.909a.718.718,0,1,1,0,1.437ZM52.9,17.631a5.886,5.886,0,0,1-2.416-1.038c-.25-.146-.572-.334-.762-.428-.19.094-.512.282-.762.428-1.438.838-2.352,1.328-3.008.852s-.472-1.5-.119-3.124c.061-.283.141-.648.171-.857-.148-.151-.426-.4-.642-.593-1.242-1.108-1.99-1.827-1.739-2.6S44.9,9.362,46.56,9.2c.288-.029.659-.066.868-.1.1-.188.249-.529.365-.794.67-1.523,1.122-2.457,1.933-2.457s1.262.934,1.933,2.457c.117.265.267.607.365.794.209.035.58.073.868.1,1.656.167,2.684.308,2.934,1.079s-.5,1.489-1.739,2.6c-.216.193-.494.441-.642.593.031.209.11.574.171.857.353,1.626.536,2.647-.119,3.124A.975.975,0,0,1,52.9,17.631ZM49.726,14.69c.337,0,.678.191,1.486.662.314.183.862.5,1.266.691-.054-.442-.189-1.062-.266-1.417a3.442,3.442,0,0,1-.17-1.617c.1-.321.391-.586,1.088-1.208.271-.242.744-.664,1.048-.99-.437-.085-1.068-.148-1.43-.185a3.442,3.442,0,0,1-1.591-.338c-.273-.2-.437-.553-.813-1.409-.146-.333-.4-.913-.618-1.3-.216.39-.471.97-.618,1.3-.376.855-.54,1.21-.813,1.409a3.442,3.442,0,0,1-1.591.338c-.362.036-.993.1-1.43.185.3.326.777.748,1.048.99.7.622.984.888,1.088,1.208a3.441,3.441,0,0,1-.17,1.617c-.077.355-.212.975-.266,1.417.4-.188.952-.508,1.266-.691C49.047,14.881,49.388,14.69,49.726,14.69Z" transform="translate(-27.37 0.5)" fill="#ff8000" stroke="#ff8000" stroke-width="1"/>
</svg>
