<svg xmlns="http://www.w3.org/2000/svg" width="36.037" height="24.69" viewBox="0 0 36.037 24.69"><defs><style>.a{fill:#757575;}</style></defs><g transform="translate(0 -80.609)"><g transform="translate(0 80.609)"><path class="a" d="M32.87,80.609H3.167A3.171,3.171,0,0,0,0,83.776v18.355A3.171,3.171,0,0,0,3.167,105.3h29.7a3.171,3.171,0,0,0,3.167-3.167V83.776A3.171,3.171,0,0,0,32.87,80.609Zm-.413,2.112-.423.352L19.275,93.7a1.964,1.964,0,0,1-2.513,0L4,83.073l-.423-.352ZM2.112,84.245l10.4,8.656L2.112,99.82ZM32.87,103.187H3.167a1.057,1.057,0,0,1-1.035-.845L14.2,94.311l1.211,1.008a4.075,4.075,0,0,0,5.216,0l1.211-1.008L33.9,102.342A1.058,1.058,0,0,1,32.87,103.187Zm1.056-3.368L23.53,92.9l10.4-8.656Z" transform="translate(0 -80.609)"/></g></g></svg>