<svg width="1440" height="895" viewBox="0 0 1440 895" fill="none" xmlns="http://www.w3.org/2000/svg">
<g opacity="0.55">
<path opacity="0.25" d="M1392 840.499C1344 818.495 1248 771.496 1152 760.815C1056 750.133 960 771.496 864 794.996C768 818.495 672 839.858 576 806.318C480 771.496 384 681.771 288 635.413C192 589.91 96 589.91 48 589.91H0V374.142V320.734V254.508L40 265.831C80 278.008 160 299.371 240 288.689C320 278.008 400 231.009 480 231.65C560 231.009 640 278.008 720 243.186C800 209.646 880 94.2847 960 60.7446C1040 25.9227 1120 72.9216 1200 94.9256C1280 117.784 1360 117.784 1400 117.784H1440V320.734V374.142V863.358L1392 840.499Z" fill="#0D4B74"/>
<path opacity="0.11" d="M1440 604.337L1435.1 611.139C1394.19 667.307 1312.38 777.889 1230.57 834.058C1148.76 889.788 1066.95 889.788 985.137 873.771C903.326 858.412 821.514 825.501 739.703 778.328C657.891 730.058 576.08 667.527 494.269 658.97C412.457 651.071 330.646 698.902 248.835 698.902C167.023 698.902 85.2119 651.071 44.3062 627.156L3.40051 603.24V593.367H0V373.958C0 373.958 104.014 265.789 160.022 242.312C238.633 209.401 320.045 176.49 480.067 223.224C640.089 270.836 800.111 450.751 960.133 498.363C1120.16 545.097 1298.78 540.05 1364.29 462.818C1404.3 415.207 1440 368.911 1440 368.911V555.409" fill="#0D4B74"/>
</g>
</svg>
